<svg width="31" height="30" viewBox="0 0 31 30" fill="none" xmlns="http://www.w3.org/2000/svg">
<path id="Logo" fill-rule="evenodd" clip-rule="evenodd" d="M26.7748 16.5829C26.7748 16.1307 26.9261 15.6784 26.9261 15.0754C26.9261 14.4724 26.9261 14.0201 26.7748 13.5678L29.953 11.005C30.2557 10.7035 30.2557 10.402 30.1044 10.1005L27.0775 4.82412C26.9261 4.67337 26.6234 4.52261 26.1694 4.67337L22.3858 6.1809C21.6291 5.57789 20.721 5.12563 19.813 4.67337L19.2076 0.753769C19.3589 0.301508 18.9049 0 18.6022 0H12.5484C12.2458 0 11.7917 0.301508 11.7917 0.603015L11.1863 4.67337C10.2783 4.97487 9.52156 5.57789 8.6135 6.1809L4.98124 4.67337C4.5272 4.52261 4.22452 4.67337 3.92183 4.97487L0.894944 10.2513C0.7436 10.402 0.894944 10.8543 1.19763 11.1558L4.37586 13.5678C4.37586 14.0201 4.22452 14.4724 4.22452 15.0754C4.22452 15.6784 4.22452 16.1307 4.37586 16.5829L1.19763 19.1457C0.894944 19.4472 0.894944 19.7487 1.04629 20.0503L4.07317 25.3266C4.22452 25.4774 4.5272 25.6281 4.98124 25.4774L8.76484 23.9698C9.52156 24.5729 10.4296 25.0251 11.3377 25.4774L11.9431 29.397C11.9431 29.6985 12.2458 30 12.6998 30H18.7536C19.0562 30 19.5103 29.6985 19.5103 29.397L20.1157 25.4774C21.0237 25.0251 21.9318 24.5729 22.6885 23.9698L26.4721 25.4774C26.7748 25.6281 27.2288 25.4774 27.3802 25.1759L30.4071 19.8995C30.5584 19.598 30.5584 19.1457 30.2557 18.995L26.7748 16.5829ZM15.5753 20.3518C12.6998 20.3518 10.2783 17.9397 10.2783 15.0754C10.2783 12.2111 12.6998 9.799 15.5753 9.799C18.4509 9.799 20.8724 12.2111 20.8724 15.0754C20.8724 17.9397 18.4509 20.3518 15.5753 20.3518Z" fill="black"/>
</svg>
